<svg height="469pt" viewBox="0 0 469 469.33367" width="469pt" xmlns="http://www.w3.org/2000/svg"><path d="m384.167969 277.332031h-298.667969v-34.449219c0-114.882812 106.667969-136.214843 106.667969-136.214843h85.332031s106.667969 21.332031 106.667969 136.214843zm0 0" fill="#b1581a"/><path d="m362.832031 256h-21.332031c0-128.292969-104.144531-148.699219-108.574219-149.511719l3.8125-20.976562c1.261719.226562 126.09375 24.601562 126.09375 170.488281zm0 0" fill="#e0bb69"/><path d="m298.292969 229.003906c-10.007813-125.984375-202.242188-125.984375-212.253907 0-.355468 4.46875-.535156 9.09375-.539062 13.878906v34.449219h213.332031v-34.449219c0-4.785156-.179687-9.414062-.539062-13.878906zm0 0" fill="#c8885b"/><path d="m149.5 245.34375-21.332031-.011719c0-1.144531 1.070312-115.257812 93.414062-138.34375l5.167969 20.6875c-76.105469 19.03125-77.238281 113.65625-77.25 117.667969zm0 0" fill="#b1581a"/><path d="m213.5 245.332031h-21.332031c0-11.59375 1.363281-113.9375 48.5625-137.539062l9.539062 19.082031c-30.113281 15.050781-36.75 90.613281-36.769531 118.457031zm0 0" fill="#b1581a"/><path d="m191.332031 256h-21.332031c0-143.300781 56.34375-158.53125 62.769531-159.800781l4.398438 20.875c-.460938.113281-45.835938 13.164062-45.835938 138.925781zm0 0" fill="#efddb4"/><path d="m298.832031 256h-21.332031c0-117.449219-46.332031-139.292969-46.800781-139.5l8.09375-19.738281c2.457031.976562 60.039062 25.550781 60.039062 159.238281zm0 0" fill="#e9cf95"/><path d="m298.832031 256h-21.332031c.042969-14.015625-.695312-28.023438-2.21875-41.957031l21.1875-2.417969c1.621094 14.734375 2.414062 29.550781 2.363281 44.375zm0 0" fill="#e0bb69"/><path d="m128.167969 256h-21.335938c0-145.886719 124.835938-170.261719 126.09375-170.488281l3.84375 20.976562c-4.4375.835938-108.601562 21.78125-108.601562 149.511719zm0 0" fill="#efddb4"/><path d="m362.832031 256h-21.332031c.0625-13.386719-1.210938-26.75-3.800781-39.886719l20.894531-4.25c2.882812 14.535157 4.304688 29.320313 4.238281 44.136719zm0 0" fill="#d6a436"/><path d="m128.167969 256h-21.335938c-.0625-15.03125 1.398438-30.03125 4.367188-44.769531l20.894531 4.3125c-2.675781 13.316406-3.992188 26.875-3.925781 40.457031zm0 0" fill="#e0bb69"/><path d="m192.167969 85.332031h85.332031v21.335938h-85.332031zm0 0" fill="#e0bb69"/><path d="m192.167969 85.335938 42.664062-85.335938 42.667969 85.335938zm0 0" fill="#efddb4"/><path d="m213.5 85.335938 21.332031-85.335938 42.667969 85.335938zm0 0" fill="#e9cf95"/><path d="m192.167969 64h85.332031v21.332031h-85.332031zm0 0" fill="#e9cf95"/><path d="m192.167969 85.332031h21.332031v21.335938h-21.332031zm0 0" fill="#efddb4"/><path d="m192.167969 64h21.332031v21.332031h-21.332031zm0 0" fill="#f4e8cc"/><path d="m85.5 256h298.667969v213.332031h-298.667969zm0 0" fill="#e0bb69"/><path d="m106.832031 362.667969h42.667969v21.332031h-42.667969zm0 0" fill="#e9cf95"/><path d="m85.5 298.667969h42.667969v21.332031h-42.667969zm0 0" fill="#e9cf95"/><path d="m106.832031 405.332031h42.667969v21.335938h-42.667969zm0 0" fill="#e9cf95"/><path d="m298.832031 256h85.335938v213.332031h-85.335938zm0 0" fill="#d6a436"/><g fill="#e0bb69"><path d="m341.5 320h42.667969v21.332031h-42.667969zm0 0"/><path d="m298.832031 362.667969h42.667969v21.332031h-42.667969zm0 0"/><path d="m341.5 405.332031h42.667969v21.335938h-42.667969zm0 0"/></g><path d="m170.832031 256h128v213.332031h-128zm0 0" fill="#e9cf95"/><path d="m256.167969 341.332031h42.664062v21.335938h-42.664062zm0 0" fill="#efddb4"/><path d="m64.167969 234.667969h341.332031v42.664062h-341.332031zm0 0" fill="#e9cf95"/><path d="m320.167969 234.667969h85.332031v42.664062h-85.332031zm0 0" fill="#e0bb69"/><path d="m64.167969 362.667969h-21.335938s-42.664062 21.332031-42.664062 64h106.664062c0-42.667969-42.664062-64-42.664062-64zm0 0" fill="#b1581a"/><path d="m149.5 234.667969h170.667969v42.664062h-170.667969zm0 0" fill="#efddb4"/><path d="m362.832031 426.667969h106.667969v42.664062h-106.667969zm0 0" fill="#e9cf95"/><path d="m384.167969 426.667969h85.332031v42.664062h-85.332031zm0 0" fill="#e0bb69"/><path d="m384.167969 426.667969h64v42.664062h-64zm0 0" fill="#efddb4"/><path d="m362.832031 426.667969h106.667969v21.332031h-106.667969zm0 0" fill="#efddb4"/><path d="m448.167969 426.667969h21.332031v21.332031h-21.332031zm0 0" fill="#e9cf95"/><path d="m85.5 426.667969h21.332031v21.332031h-21.332031zm0 0" fill="#e9cf95"/><path d="m384.167969 426.667969h64v21.332031h-64zm0 0" fill="#f4e8cc"/><path d="m384.167969 448h21.332031v21.332031h-21.332031zm0 0" fill="#2c2e2b"/><path d="m426.832031 448h21.335938v21.332031h-21.335938zm0 0" fill="#2c2e2b"/><path d="m213.5 341.332031s-64 21.335938-64 85.335938h170.667969c0-64-64-85.335938-64-85.335938zm0 0" fill="#b1581a"/><path d="m234.832031 341.332031v85.335938h85.335938c0-64-64-85.335938-64-85.335938zm0 0" fill="#a84400"/><path d="m149.5 426.667969h170.667969v42.664062h-170.667969zm0 0" fill="#e9cf95"/><path d="m277.5 426.667969h42.667969v42.664062h-42.667969zm0 0" fill="#e0bb69"/><path d="m192.167969 426.667969h85.332031v42.664062h-85.332031zm0 0" fill="#efddb4"/><path d="m128.167969 426.667969h213.332031v21.332031h-213.332031zm0 0" fill="#efddb4"/><path d="m298.832031 426.667969h42.667969v21.332031h-42.667969zm0 0" fill="#e9cf95"/><path d="m170.832031 426.667969h128v21.332031h-128zm0 0" fill="#f4e8cc"/><path d="m426.832031 362.667969h-21.332031s-42.667969 21.332031-42.667969 64h106.667969c0-42.667969-42.667969-64-42.667969-64zm0 0" fill="#b1581a"/><path d="m426.832031 362.667969v64h42.667969c0-42.667969-42.667969-64-42.667969-64zm0 0" fill="#a84400"/><path d="m384.167969 426.667969c0-42.667969 21.332031-64 21.332031-64h21.332031s21.335938 21.332031 21.335938 64zm0 0" fill="#ba6b33"/><path d="m64.167969 362.667969h-21.335938s-42.664062 21.332031-42.664062 64h106.664062c0-42.667969-42.664062-64-42.664062-64zm0 0" fill="#b1581a"/><path d="m64.167969 362.667969v64h42.664062c0-42.667969-42.664062-64-42.664062-64zm0 0" fill="#a84400"/><path d="m.167969 426.667969h106.664062v42.664062h-106.664062zm0 0" fill="#e9cf95"/><path d="m21.5 426.667969h85.332031v42.664062h-85.332031zm0 0" fill="#e0bb69"/><path d="m21.5 426.667969h64v42.664062h-64zm0 0" fill="#efddb4"/><path d="m.167969 426.667969h106.664062v21.332031h-106.664062zm0 0" fill="#efddb4"/><path d="m21.5 426.667969h64v21.332031h-64zm0 0" fill="#f4e8cc"/><path d="m21.5 448h21.332031v21.332031h-21.332031zm0 0" fill="#2c2e2b"/><path d="m64.167969 448h21.332031v21.332031h-21.332031zm0 0" fill="#2c2e2b"/><path d="m213.5 341.332031s-21.332031 21.335938-21.332031 85.335938h86.171875s-.839844-64-22.171875-85.335938zm0 0" fill="#ba6b33"/><path d="m21.5 426.667969c0-42.667969 21.332031-64 21.332031-64h21.335938s21.332031 21.332031 21.332031 64zm0 0" fill="#ba6b33"/><path d="m256.167969 320c0 11.78125-9.550781 21.332031-21.335938 21.332031-11.78125 0-21.332031-9.550781-21.332031-21.332031s9.550781-21.332031 21.332031-21.332031c11.785157 0 21.335938 9.550781 21.335938 21.332031zm0 0" fill="#2c2e2b"/><path d="m170.832031 320c0 11.78125-9.550781 21.332031-21.332031 21.332031s-21.332031-9.550781-21.332031-21.332031 9.550781-21.332031 21.332031-21.332031 21.332031 9.550781 21.332031 21.332031zm0 0" fill="#2c2e2b"/><path d="m341.5 320c0 11.78125-9.550781 21.332031-21.332031 21.332031-11.785157 0-21.335938-9.550781-21.335938-21.332031s9.550781-21.332031 21.335938-21.332031c11.78125 0 21.332031 9.550781 21.332031 21.332031zm0 0" fill="#2c2e2b"/><path d="m298.832031 277.332031h85.335938v21.335938h-85.335938zm0 0" fill="#cb8c01"/><path d="m85.5 277.332031h85.332031v21.335938h-85.332031zm0 0" fill="#d6a436"/><path d="m170.832031 277.332031h128v21.335938h-128zm0 0" fill="#e0bb69"/><path d="m170.832031 320h42.667969v21.332031h-42.667969zm0 0" fill="#efddb4"/><path d="m256.167969 298.667969h42.664062v21.332031h-42.664062zm0 0" fill="#efddb4"/></svg>