<svg id="Capa_1" enable-background="new 0 0 505 505" height="512" viewBox="0 0 505 505" width="512" xmlns="http://www.w3.org/2000/svg"><g><g><path d="m280.975 228.471h-272.6v-121.33c0-5.24 3.2-9.96 8.07-11.89 0 0 60.76-22.86 73.72-27.27 1.16-.39 1.93-.64 2.25-.71 46.9-10.43 95.98 10.06 121.54 51.77z" fill="#fedba6"/><path d="m226.735 228.471h-218.36v-121.33c0-5.24 3.2-9.96 8.07-11.89 0 0 60.76-22.86 73.72-27.27 28.21 7.07 53.51 24.89 69.55 51.06z" fill="#ffefd2"/><path d="m120.685 146.821v64.33h-54.58v-64.33c0-10.32 5.73-19.31 14.19-23.94 3.89-2.14 8.35-3.35 13.1-3.35 15.07 0 27.29 12.22 27.29 27.29z" fill="#a44f3e"/><path d="m94.485 146.821v64.33h-28.38v-64.33c0-10.32 5.73-19.31 14.19-23.94 8.46 4.63 14.19 13.62 14.19 23.94z" fill="#bb5d4c"/><path d="m498.375 228.471v130.003h-490v-130.003l45.129-17.942c57.449-22.84 117.821-35.446 178.506-37.833 74.928-2.974 150.318 9.646 221.236 37.833z" fill="#fedba6"/><path d="m455.645 228.471v130.003h-447.27v-130.003l45.129-17.942c57.449-22.84 117.821-35.446 178.506-37.833 60.685 2.386 121.057 14.993 178.505 37.833z" fill="#ffefd2"/><path d="m440.645 274.261v64.33h-54.58v-64.33c0-10.33 5.74-19.32 14.2-23.94 3.89-2.14 8.35-3.35 13.09-3.35 15.07 0 27.29 12.22 27.29 27.29z" fill="#a44f3e"/><path d="m414.455 274.261v64.33h-28.39v-64.33c0-10.33 5.74-19.32 14.2-23.94 8.46 4.63 14.19 13.62 14.19 23.94z" fill="#bb5d4c"/><path d="m333.995 246.851v64.33h-54.59v-64.33c0-10.33 5.73-19.32 14.2-23.95 3.89-2.14 8.35-3.35 13.1-3.35 15.071 0 27.29 12.22 27.29 27.3z" fill="#a44f3e"/><path d="m307.796 246.851v64.33h-28.39v-64.33c0-10.33 5.73-19.32 14.2-23.95 8.459 4.63 14.19 13.62 14.19 23.95z" fill="#bb5d4c"/><path d="m227.335 246.851v64.33h-54.58v-64.33c0-10.33 5.73-19.32 14.19-23.95 3.89-2.14 8.35-3.35 13.1-3.35 15.07 0 27.29 12.22 27.29 27.3z" fill="#a44f3e"/><path d="m201.145 246.851v64.33h-28.39v-64.33c0-10.33 5.73-19.32 14.19-23.95 8.47 4.63 14.2 13.62 14.2 23.95z" fill="#bb5d4c"/><path d="m120.685 274.261v64.33h-54.58v-64.33c0-10.32 5.73-19.31 14.19-23.94 3.89-2.14 8.35-3.35 13.1-3.35 15.07 0 27.29 12.22 27.29 27.29z" fill="#a44f3e"/><path d="m94.485 274.261v64.33h-28.38v-64.33c0-10.32 5.73-19.31 14.19-23.94 8.46 4.63 14.19 13.62 14.19 23.94z" fill="#bb5d4c"/><path d="m498.375 358.471v84c0 13.02-10.55 23.57-23.56 23.57h-442.88c-13.01 0-23.56-10.55-23.56-23.57v-84l45.13-17.94c57.45-22.84 117.82-35.45 178.5-37.83h.01c74.93-2.98 150.31 9.64 221.23 37.83z" fill="#fedba6"/><path d="m455.645 358.471v84c0 13.02-10.55 23.57-23.56 23.57h-400.15c-13.01 0-23.56-10.55-23.56-23.57v-84l45.13-17.94c57.45-22.84 117.82-35.45 178.5-37.83h.01c60.68 2.38 121.06 15 178.5 37.83z" fill="#ffefd2"/><path d="m294.064 83.736c0 12.503 10.138 22.641 22.653 22.641 3.812 0 7.405-.942 10.563-2.618 6.521 9.954 17.785 16.533 30.575 16.533 5.316 0 10.356-1.137 14.914-3.18 7.922 7.084 18.393 11.401 29.863 11.401 17.922 0 33.388-10.529 40.529-25.741 3.525 2.285 7.738 3.605 12.25 3.605 12.515 0 22.653-10.138 22.653-22.641 0-12.515-10.138-22.653-22.653-22.653-4.512 0-8.726 1.32-12.25 3.605-7.153-15.201-22.607-25.73-40.529-25.73-11.47 0-21.929 4.317-29.851 11.401-4.558-2.044-9.61-3.18-14.926-3.18-12.79 0-24.042 6.567-30.575 16.521-3.157-1.676-6.751-2.617-10.563-2.617-12.515.001-22.653 10.139-22.653 22.653z" fill="#eaf6ff"/><path d="m440.645 401.701v64.34h-54.58v-64.34c0-10.33 5.74-19.32 14.2-23.94 3.89-2.14 8.35-3.35 13.09-3.35 15.07 0 27.29 12.22 27.29 27.29z" fill="#a44f3e"/><path d="m414.455 401.701v64.34h-28.39v-64.34c0-10.33 5.74-19.32 14.2-23.94 8.46 4.63 14.19 13.62 14.19 23.94z" fill="#bb5d4c"/><path d="m333.995 376.711v89.33h-54.59v-89.33c0-10.32 5.73-19.31 14.2-23.95 3.89-2.13 8.35-3.34 13.1-3.34 15.071 0 27.29 12.22 27.29 27.29z" fill="#a44f3e"/><path d="m307.796 376.711v89.33h-28.39v-89.33c0-10.32 5.73-19.31 14.2-23.95 8.459 4.64 14.19 13.63 14.19 23.95z" fill="#bb5d4c"/><path d="m227.335 376.711v89.33h-54.58v-89.33c0-10.32 5.73-19.31 14.19-23.95 3.89-2.13 8.35-3.34 13.1-3.34 15.07 0 27.29 12.22 27.29 27.29z" fill="#a44f3e"/><path d="m201.145 376.711v89.33h-28.39v-89.33c0-10.32 5.73-19.31 14.19-23.95 8.47 4.64 14.2 13.63 14.2 23.95z" fill="#bb5d4c"/><path d="m120.685 401.701v64.34h-54.58v-64.34c0-10.32 5.73-19.31 14.19-23.94 3.89-2.14 8.35-3.35 13.1-3.35 15.07 0 27.29 12.22 27.29 27.29z" fill="#a44f3e"/><path d="m94.485 401.701v64.34h-28.38v-64.34c0-10.32 5.73-19.31 14.19-23.94 8.46 4.63 14.19 13.62 14.19 23.94z" fill="#bb5d4c"/></g><g><path d="m497.5 272.325c4.143 0 7.5-3.357 7.5-7.5v-36.354c0-3.072-1.874-5.834-4.729-6.97-81.313-32.327-161.694-57.163-250.382-56.719-12.727-20.781-24.211-43.585-39.56-62.585-27.704-34.295-79.93-55.93-123.455-41.317-12.925 4.399-71.459 26.416-73.944 27.351-.041.016-.082.031-.123.048-7.781 3.084-12.807 10.488-12.807 18.863v335.33c0 17.132 13.934 31.069 31.061 31.069h256.664c4.143 0 7.5-3.357 7.5-7.5-.033-3.964-4.063-8.124-9.194-7.5v-81.83c0-10.912 8.882-19.79 19.8-19.79 10.912 0 19.79 8.878 19.79 19.79v81.83c-3.773-.703-9.406 2.218-9.529 7.5 0 4.143 3.357 7.5 7.5 7.5h150.35c17.126 0 31.06-13.938 31.06-31.069v-139.773c0-4.143-3.357-7.5-7.5-7.5s-7.5 3.357-7.5 7.5v44.72c-14.23-5.657-28.405-11.479-42.724-16.91v-56.247c0-19.183-15.611-34.788-34.8-34.788-19.182 0-34.787 15.605-34.787 34.788v34.922c-12.28-2.887-24.642-5.341-37.076-7.363v-54.971c0-19.189-15.605-34.801-34.788-34.801-19.182 0-34.787 15.611-34.787 34.801v48.22c-12.352-.403-24.725-.406-37.076.017v-48.237c0-19.189-15.605-34.801-34.787-34.801-19.189 0-34.801 15.611-34.801 34.801v55.03c-12.439 2.02-24.799 4.462-37.063 7.338v-34.955c0-19.183-15.605-34.788-34.787-34.788-19.188 0-34.8 15.605-34.8 34.788v56.247c-14.319 5.434-28.496 11.252-42.726 16.909v-113.859c76.069-30.241 151.514-53.298 234.42-53.771 85.077-.486 162.49 22.727 240.58 53.771v31.266c0 4.142 3.357 7.499 7.5 7.499zm-424.774 186.212v-56.832c0-10.914 8.879-19.793 19.792-19.793 10.914 0 19.793 8.879 19.793 19.793v56.832zm106.654 0v-81.821c0-10.913 8.879-19.792 19.792-19.792 10.914 0 19.793 8.879 19.793 19.792v81.821zm213.308 0v-56.832c0-10.914 8.879-19.793 19.792-19.793 10.914 0 19.793 8.879 19.793 19.793v56.832zm81.252.004h-26.667v-56.836c0-19.185-15.608-34.793-34.793-34.793s-34.792 15.608-34.792 34.793v56.836h-37.068v-81.83c0-19.184-15.606-34.79-34.79-34.79-19.188 0-34.8 15.606-34.8 34.79v81.83h-37.065v-81.825c0-19.185-15.608-34.792-34.793-34.792s-34.792 15.607-34.792 34.792v81.825h-37.069v-56.836c0-19.185-15.608-34.793-34.793-34.793s-34.792 15.608-34.792 34.793v56.836h-26.665c-8.855 0-16.061-7.209-16.061-16.069v-78.909c72.459-28.807 144.775-51.523 223.596-53.605 88.796-2.345 169.945 21.22 251.404 53.605v78.909c0 8.86-7.204 16.069-16.06 16.069zm-81.251-184.278c0-10.911 8.877-19.788 19.787-19.788 10.918 0 19.8 8.877 19.8 19.788v50.794c-13.086-4.551-26.285-8.596-39.587-12.125zm-106.651-27.412c0-10.918 8.876-19.801 19.787-19.801s19.788 8.883 19.788 19.801v52.746c-13.12-1.757-26.316-3.034-39.575-3.831zm-106.664 0c0-10.918 8.883-19.801 19.801-19.801 10.91 0 19.787 8.883 19.787 19.801v48.946c-13.234.809-26.448 2.095-39.588 3.856zm-86.851 7.624c10.91 0 19.787 8.877 19.787 19.788v38.703c-13.322 3.524-26.524 7.554-39.587 12.09v-50.793c.001-10.911 8.882-19.788 19.8-19.788zm-42.665-50.915-34.858 13.858v-110.276c0-2.134 1.318-4.096 3.285-4.898 2.445-.92 60.924-22.909 73.393-27.152 37.73-12.677 83.507 7.212 107.258 36.841 12.994 16.21 22.76 35.536 33.586 53.211-35.446 1.288-70.739 6.016-105.211 14.105v-32.427c0-19.183-15.605-34.788-34.787-34.788-12.26 0-23.383 6.258-29.756 16.741-2.151 3.539-1.026 8.152 2.514 10.305 3.535 2.147 8.151 1.026 10.305-2.514 3.628-5.969 9.96-9.532 16.938-9.532 10.91 0 19.787 8.877 19.787 19.788v36.159c-13.339 3.518-26.554 7.552-39.587 12.074v-27.788c0-4.143-3.357-7.5-7.5-7.5s-7.5 3.357-7.5 7.5v33.24c-2.584.981-5.211 1.998-7.867 3.053z"/><path d="m315.842 113.878c2.715 0 5.419-.37 8.023-1.089 8.303 9.488 20.292 15.004 33.114 15.004 4.65 0 9.188-.714 13.543-2.126 8.995 6.701 19.921 10.347 31.234 10.347 17.66 0 34.094-9.041 43.665-23.541 2.924.928 5.993 1.405 9.114 1.405 16.626 0 30.152-13.521 30.152-30.142 0-16.626-13.526-30.152-30.152-30.152-3.123 0-6.194.478-9.119 1.406-9.58-14.495-26.013-23.531-43.66-23.531-11.307 0-22.229 3.646-31.224 10.347-4.356-1.412-8.897-2.126-13.554-2.126-12.815 0-24.804 5.512-33.11 14.993-2.604-.719-5.311-1.089-8.027-1.089-16.626 0-30.152 13.526-30.152 30.152 0 16.62 13.527 30.142 30.153 30.142zm0-45.294c5.444 0 12.548 5.765 16.834-.768 5.397-8.226 14.483-13.137 24.304-13.137 6.001 0 14.642 5.995 19.925 1.271 6.846-6.121 15.672-9.492 24.853-9.492 14.374 0 27.619 8.409 33.743 21.423 4.008 8.518 13.394.702 19.036.702 8.355 0 15.152 6.797 15.152 15.152 0 8.35-6.797 15.142-15.152 15.142-5.643 0-15.035-7.82-19.039.707-6.111 13.018-19.354 21.429-33.74 21.429-9.188 0-18.019-3.371-24.864-9.492-5.344-4.779-13.971 1.271-19.913 1.271-9.825 0-18.909-4.913-24.301-13.143-4.285-6.541-11.391-.772-16.837-.772-8.355 0-15.152-6.792-15.152-15.142-.002-8.354 6.795-15.151 15.151-15.151z"/></g></g></svg>