<svg enable-background="new 0 0 256 256" height="512" viewBox="0 0 256 256" width="512" xmlns="http://www.w3.org/2000/svg"><g id="Layer_11"><g><g><path d="m128 122.606c3.643 0 7.268.347 10.828 1.016 3.269-7.551 10.233-27.484 10.233-60.309 0-7.909-.94-15.313-2.417-22.081-.158-.722-.858-1.188-1.587-1.07l-1.411.229c-1.133.184-1.989-1.005-1.456-2.021l2.234-4.262c.17-.325.207-.708.101-1.059-3.926-13.081-9.517-23.057-13.084-28.601-1.671-2.597-5.21-2.597-6.88 0-4.431 6.886-11.988 20.602-15.592 38.623-.083.414.027.847.296 1.172l4.602 5.56c.764.924.082 2.317-1.116 2.28l-3.862-.12c-.731-.023-1.361.519-1.434 1.246-.328 3.265-.514 6.635-.514 10.105 0 32.825 6.964 52.758 10.233 60.309 3.557-.67 7.183-1.017 10.826-1.017z" fill="#9be5f9"/></g><g><path d="m226.7 158.648c-6.405.567-20.65.252-44.45-8.148-23.778-8.392-40.832 3.024-48.936 10.647-2.988 2.81-7.64 2.81-10.628 0-8.104-7.623-25.158-19.04-48.936-10.647-23.8 8.4-38.045 8.715-44.45 8.148-2.019-.179-3.645 1.661-3.242 3.647 4.732 23.373 13.586 39.208 22.985 49.905 12.2 13.884 31.049 20.364 49.125 16.509 13.255-2.826 21.467 2.426 25.84 6.917 2.172 2.231 5.814 2.231 7.986 0 4.372-4.492 12.585-9.744 25.84-6.917 18.073 3.854 36.921-2.623 49.12-16.504 9.401-10.696 18.257-26.533 22.99-49.91.401-1.986-1.225-3.826-3.244-3.647zm-108.575 44.054-15.439 2.27c-3.669.54-7.336.833-10.981.891-14.515.231-27.716-8.742-32.231-22.539-.028-.085-.055-.169-.081-.251-.442-1.386.842-2.714 2.239-2.309 3.62 1.051 10.328 1.916 19.868-1.264 3.332-1.111 6.762-1.728 10.083-2.016 14.208-1.233 26.866 9.204 27.866 23.43.004.052.007.102.01.151.051.811-.53 1.519-1.334 1.637zm78.482-19.629c-.026.083-.053.166-.081.251-4.515 13.797-17.716 22.77-32.231 22.539-3.645-.058-7.312-.351-10.981-.891l-15.439-2.27c-.803-.118-1.385-.826-1.333-1.636.003-.049.007-.1.01-.151.999-14.227 13.657-24.664 27.866-23.43 3.321.288 6.751.905 10.083 2.016 9.54 3.18 16.248 2.315 19.868 1.264 1.396-.406 2.679.922 2.238 2.308z" fill="#f5c84c"/></g><g><g><path d="m101.454 139.639c-1.737 0-3.425-.907-4.348-2.524-1.368-2.399-.532-5.453 1.866-6.82 8.819-5.03 18.857-7.688 29.028-7.688 10.17 0 20.208 2.658 29.027 7.688 2.399 1.368 3.235 4.421 1.867 6.82s-4.423 3.234-6.82 1.867c-7.313-4.17-15.638-6.374-24.074-6.374s-16.761 2.204-24.074 6.375c-.781.444-1.633.656-2.472.656z" fill="#f5c84c"/></g></g><g><path d="m128 132.606c-8.38 0-16.648 2.18-23.926 6.296l6.713 13.762c5.023 2.604 9.025 5.78 11.898 8.482 2.988 2.81 7.64 2.81 10.628 0 2.873-2.702 6.876-5.878 11.898-8.482l6.714-13.763c-7.277-4.115-15.545-6.295-23.925-6.295z" fill="#fca265"/></g><g><path d="m195.52 20.842c-.187-3.082-3.274-4.813-6.001-3.365-7.233 3.839-20.533 12.106-32.491 26.061-.274.32-.391.752-.315 1.167l1.294 7.1c.215 1.179-1.062 2.061-2.089 1.443l-3.31-1.994c-.626-.377-1.441-.213-1.86.386-.698.996-1.382 2.022-2.058 3.064.239 2.796.37 5.668.37 8.61 0 32.825-6.964 52.758-10.233 60.309 2.755.518 5.47 1.231 8.122 2.135 7.715-6.558 21.349-20.348 35.147-44.953 3.868-6.898 6.67-13.816 8.692-20.442.216-.707-.167-1.456-.861-1.709l-1.342-.491c-1.078-.394-1.244-1.849-.282-2.475l4.033-2.625c.307-.2.527-.517.606-.874 2.975-13.33 2.978-24.767 2.578-31.347z" fill="#70d6f9"/></g><g><path d="m229.217 71.828c-7.059-.324-20.571-.023-35.584 5.094-.344.117-.621.387-.747.729l-2.156 5.843c-.358.971-1.694 1.065-2.185.155l-1.583-2.935c-.299-.555-.977-.791-1.552-.53-1.361.617-2.727 1.28-4.094 1.986-13.529 23.741-26.796 37.154-34.366 43.588 3.485 1.189 6.863 2.703 10.077 4.536.629.359 1.143.837 1.546 1.386 9.132-2.449 21.918-7.122 37.32-16.061 5.903-3.426 11.023-7.335 15.434-11.37.47-.43.515-1.155.111-1.648l-.782-.954c-.628-.766-.112-1.92.878-1.963l4.149-.179c.316-.014.618-.153.834-.383 8.063-8.597 13.087-17.093 15.68-22.157 1.215-2.373-.318-5.015-2.98-5.137z" fill="#3caadc"/></g><g><path d="m109.05 125.758c2.652-.905 5.367-1.617 8.122-2.135-3.269-7.551-10.233-27.484-10.233-60.309 0-2.94.14-5.803.38-8.595-.679-1.047-1.366-2.078-2.068-3.078-.419-.599-1.234-.763-1.86-.386l-3.31 1.994c-1.027.619-2.304-.263-2.089-1.443l1.294-7.1c.076-.415-.041-.847-.315-1.167-11.957-13.957-25.257-22.224-32.49-26.062-2.727-1.448-5.814.283-6.001 3.365-.4 6.58-.397 18.017 2.577 31.346.08.358.299.674.606.874l4.033 2.625c.962.626.796 2.081-.282 2.475l-1.342.491c-.694.254-1.077 1.003-.861 1.709 2.022 6.626 4.823 13.543 8.692 20.442 13.798 24.606 27.431 38.396 35.147 44.954z" fill="#70d6f9"/></g><g><path d="m98.972 130.294c3.214-1.833 6.592-3.347 10.078-4.537-7.57-6.434-20.836-19.847-34.366-43.588-1.367-.706-2.733-1.369-4.094-1.986-.574-.26-1.252-.025-1.552.53l-1.583 2.935c-.491.911-1.827.816-2.185-.155l-2.156-5.843c-.126-.341-.402-.611-.747-.729-15.013-5.117-28.525-5.418-35.584-5.094-2.662.122-4.195 2.764-2.981 5.136 2.592 5.064 7.617 13.56 15.68 22.157.216.231.518.37.834.383l4.149.179c.989.043 1.505 1.197.878 1.963l-.782.954c-.404.493-.36 1.218.111 1.648 4.411 4.035 9.531 7.944 15.434 11.37 15.402 8.939 28.187 13.612 37.32 16.061.403-.547.917-1.025 1.546-1.384z" fill="#3caadc"/></g><g><g><path d="m226.7 158.648c-.12.011-.263.018-.389.028-9.924 5.737-26.999 12.824-50.811 12.824-34.51 0-38.501 23.071-38.947 29.405 1.004-14.222 13.659-24.654 27.865-23.421 3.321.288 6.751.905 10.083 2.016 9.54 3.18 16.248 2.315 19.868 1.264 1.397-.406 2.68.922 2.239 2.309-.026.083-.053.166-.081.251-4.504 13.762-17.651 22.721-32.124 22.537 22.4.341 43.962-8.19 59.91-23.541 2.214-5.97 4.13-12.616 5.63-20.025.402-1.986-1.224-3.826-3.243-3.647z" fill="#fc657e"/></g></g><g><g><path d="m29.3 158.648c.12.011.263.018.389.028 9.923 5.737 26.999 12.824 50.811 12.824 34.51 0 38.501 23.071 38.947 29.405-1.004-14.222-13.659-24.654-27.865-23.421-3.321.288-6.751.905-10.083 2.016-9.54 3.18-16.248 2.315-19.868 1.264-1.397-.406-2.68.922-2.239 2.309.026.083.053.166.081.251 4.504 13.762 17.651 22.721 32.124 22.537-22.4.341-43.962-8.19-59.91-23.541-2.214-5.97-4.13-12.616-5.63-20.025-.402-1.986 1.224-3.826 3.243-3.647z" fill="#fc657e"/></g></g><g><path d="m137.875 202.702c-.803-.118-1.385-.826-1.333-1.636.003-.049.007-.1.01-.151.001-.013.003-.027.004-.04-.001.01-.002.021-.003.031.162-2.3.8-6.807 3.188-11.614-7.643 2.313-15.838 2.313-23.481 0 2.387 4.807 3.026 9.314 3.188 11.614-.001-.01-.002-.021-.003-.031.001.013.003.027.004.04.004.052.007.102.01.151.052.81-.53 1.518-1.333 1.636l-14.078 2.07c6.653 5.491 14.885 14.849 18.084 29.108.689.582 1.315 1.17 1.876 1.746 2.172 2.231 5.814 2.231 7.986 0 .561-.576 1.187-1.164 1.876-1.746 3.199-14.259 11.431-23.618 18.084-29.108z" fill="#fcdd86"/></g><g><path d="m94.775 6.175c-3.1-.6-5.6-3-6.2-6.1 0-.1-.3-.1-.3 0-.6 3.1-3.1 5.5-6.2 6.1-.1 0-.1.2 0 .3 3.1.6 5.6 3 6.2 6.1 0 .1.3.1.3 0 .6-3.1 3.1-5.5 6.2-6.1.1-.1.1-.3 0-.3z" fill="#fc657e"/></g><g><path d="m217.9 52.801h2.3v2.3c0 1.8 1.4 3.2 3.2 3.2 1.7 0 3.2-1.4 3.2-3.1v-.1-2.3h2.3c1.8 0 3.2-1.4 3.2-3.2 0-1.7-1.4-3.2-3.1-3.2h-.1-2.3v-2.3c0-1.8-1.4-3.2-3.2-3.2-1.7 0-3.2 1.4-3.2 3.1v.1 2.3h-2.3c-1.8 0-3.2 1.4-3.2 3.2-.1 1.7 1.3 3.2 3.2 3.2-.1 0-.1 0 0 0z" fill="#87d147"/></g><g><circle cx="72.3" cy="252.6" fill="#70d6f9" r="3.4"/></g><g><circle cx="213.6" cy="24.301" fill="#f5c84c" r="3.4"/></g><g><path d="m32.7 236.101c4.5-.8 8-4.3 8.9-8.7 0-.2.4-.2.4 0 .9 4.4 4.4 7.9 8.9 8.7.2 0 .2.3 0 .4-4.5.8-8 4.3-8.9 8.7 0 .2-.4.2-.4 0-.9-4.4-4.4-7.9-8.9-8.7-.2-.1-.2-.4 0-.4z" fill="#f5c84c"/></g><g><path d="m128 239.8c-2.205 0-4.259-.863-5.784-2.43-4.131-4.243-11.567-8.764-23.527-6.216-18.872 4.023-38.611-2.607-51.524-17.304-11.398-12.972-19.324-30.15-23.557-51.059-.351-1.733.125-3.485 1.308-4.807 1.177-1.316 2.856-1.981 4.605-1.827 6.177.546 20.029.233 43.397-8.015 25.048-8.841 43.006 3.212 51.481 11.184 2.02 1.899 5.184 1.899 7.202 0 8.475-7.971 26.434-20.024 51.481-11.184 23.368 8.248 37.218 8.56 43.398 8.015 1.747-.153 3.428.511 4.604 1.827 1.183 1.322 1.659 3.074 1.308 4.807-4.233 20.911-12.161 38.092-23.562 51.064-12.913 14.692-32.65 21.323-51.52 17.298-11.955-2.548-19.396 1.973-23.527 6.217-1.524 1.568-3.578 2.43-5.783 2.43zm-22.535-14.399c9.762 0 16.315 4.354 20.334 8.482 1.151 1.184 3.251 1.183 4.402 0 5.01-5.146 13.959-10.647 28.153-7.619 17.097 3.645 35-2.375 46.721-15.709 10.817-12.308 18.359-28.712 22.417-48.756.047-.235-.064-.403-.135-.482-.082-.091-.224-.195-.437-.179-6.579.58-21.244.281-45.502-8.281-22.547-7.958-38.744 2.918-46.391 10.111-3.94 3.706-10.113 3.706-14.054 0-7.647-7.193-23.842-18.069-46.391-10.111-24.26 8.563-38.923 8.863-45.502 8.281-.22-.017-.354.087-.437.179-.071.079-.182.247-.135.482 4.058 20.042 11.598 36.443 22.413 48.75 11.721 13.339 29.626 19.36 46.726 15.715 2.807-.598 5.411-.863 7.818-.863zm121.235-66.753h.01zm-61.843 49.72c-.201 0-.4-.001-.602-.005-3.773-.06-7.577-.369-11.305-.917l-15.439-2.271c-2.076-.306-3.598-2.181-3.464-4.269l.011-.159c.522-7.435 3.944-14.203 9.636-19.066 5.828-4.979 13.261-7.351 20.94-6.688 3.815.332 7.401 1.05 10.657 2.135 9.167 3.055 15.45 2.085 18.38 1.235 1.532-.443 3.177-.01 4.292 1.134 1.119 1.148 1.511 2.809 1.025 4.334v.001l-.088.273c-4.769 14.573-18.403 24.263-34.043 24.263zm-25.748-8.011 14.568 2.142c3.515.517 7.1.808 10.657.865 13.328.183 25.068-7.734 29.489-19.874-4.353 1.02-11.091 1.39-20.114-1.619-2.884-.961-6.083-1.6-9.508-1.897-6.332-.548-12.459 1.407-17.26 5.509-4.476 3.825-7.239 9.083-7.832 14.874zm57.497-17.284h.01zm-2.381-.76c0 .001-.001.001 0 0zm-103.082 26.055c-15.641 0-29.274-9.689-34.044-24.267l-.086-.268c-.487-1.528-.093-3.188 1.025-4.336 1.115-1.144 2.761-1.577 4.292-1.134 2.93.851 9.213 1.821 18.38-1.235 3.256-1.085 6.842-1.804 10.657-2.135 7.677-.663 15.113 1.709 20.94 6.688 5.692 4.863 9.114 11.631 9.635 19.058l.011.154c.134 2.102-1.387 3.977-3.463 4.282l-15.439 2.271c-3.728.548-7.532.856-11.305.917-.202.003-.403.005-.603.005zm-28.966-24.878c4.424 12.141 16.162 20.061 29.489 19.874 3.557-.057 7.142-.348 10.657-.865l14.569-2.142c-.591-5.786-3.354-11.047-7.833-14.874-4.8-4.102-10.931-6.06-17.26-5.509-3.424.297-6.624.936-9.508 1.897-9.023 3.007-15.761 2.639-20.114 1.619zm55.948 19.212h.01zm-.363-2.473c-.002 0-.004 0-.006 0z"/></g><g><path d="m164.857 208.368c-.201 0-.4-.001-.602-.005-3.773-.06-7.577-.369-11.305-.917l-15.439-2.271c-2.076-.306-3.598-2.181-3.464-4.269l.011-.159c.522-7.435 3.944-14.203 9.636-19.066 5.828-4.979 13.261-7.351 20.94-6.688 3.815.332 7.401 1.05 10.657 2.135 9.167 3.055 15.45 2.085 18.38 1.235 1.534-.443 3.177-.01 4.292 1.134 1.119 1.148 1.511 2.809 1.025 4.334l-.088.274c-4.769 14.573-18.403 24.262-34.043 24.263zm-25.748-8.011 14.568 2.142c3.515.517 7.1.808 10.657.865 13.328.183 25.068-7.734 29.489-19.874-4.353 1.021-11.092 1.389-20.114-1.619-2.884-.961-6.083-1.6-9.508-1.897-6.332-.548-12.459 1.407-17.26 5.509-4.476 3.825-7.239 9.083-7.832 14.874zm55.259-19.593h.01z"/></g><g><path d="m91.143 208.368c-15.641 0-29.274-9.689-34.044-24.267l-.086-.268c-.487-1.527-.094-3.188 1.024-4.336 1.116-1.145 2.762-1.578 4.292-1.134 2.93.851 9.213 1.821 18.38-1.235 3.256-1.085 6.841-1.804 10.657-2.135 7.677-.663 15.113 1.709 20.94 6.688 5.692 4.863 9.114 11.631 9.635 19.058l.011.154c.134 2.102-1.387 3.977-3.463 4.282l-15.439 2.271c-3.728.548-7.532.856-11.305.917-.201.003-.402.005-.602.005zm-28.966-24.878c4.424 12.141 16.162 20.061 29.489 19.874 3.557-.057 7.142-.348 10.657-.865l14.569-2.142c-.591-5.786-3.354-11.047-7.833-14.874-4.8-4.102-10.926-6.057-17.26-5.509-3.425.297-6.624.936-9.508 1.897-9.023 3.007-15.761 2.639-20.114 1.619z"/></g><g><g><path d="m154.538 142.14c-1.286 0-2.556-.334-3.703-.988-6.936-3.955-14.833-6.045-22.835-6.045-8.003 0-15.899 2.091-22.835 6.046-1.131.645-2.414.986-3.711.986-2.689 0-5.188-1.451-6.519-3.785-.993-1.741-1.248-3.763-.719-5.695.529-1.933 1.778-3.543 3.519-4.536 9.195-5.244 19.661-8.016 30.266-8.016 10.604 0 21.07 2.772 30.266 8.016 1.74.992 2.99 2.603 3.519 4.535.529 1.933.273 3.955-.719 5.695s-2.603 2.99-4.536 3.519c-.66.179-1.328.268-1.993.268zm-26.538-17.034c-9.738 0-19.347 2.545-27.79 7.36-.58.331-.996.867-1.172 1.511-.176.645-.091 1.318.24 1.898.659 1.157 2.236 1.603 3.41.933 7.688-4.385 16.441-6.703 25.312-6.703 8.87 0 17.623 2.317 25.313 6.702.58.331 1.253.416 1.898.24s1.181-.593 1.512-1.172c.331-.581.416-1.255.24-1.898-.176-.644-.593-1.181-1.173-1.512-8.444-4.814-18.053-7.359-27.79-7.359z"/></g></g><g><path d="m145.307 154.967c-.368 0-.741-.082-1.094-.253-1.241-.605-1.756-2.102-1.151-3.343l6.257-12.828c.604-1.241 2.1-1.756 3.343-1.151 1.241.605 1.756 2.102 1.151 3.343l-6.257 12.828c-.433.887-1.323 1.404-2.249 1.404z"/></g><g><path d="m110.521 154.616c-.926 0-1.815-.516-2.249-1.404l-6.086-12.476c-.605-1.241-.09-2.738 1.151-3.343s2.737-.09 3.343 1.151l6.086 12.476c.605 1.241.09 2.738-1.151 3.343-.352.171-.726.253-1.094.253z"/></g><g><path d="m128 123.971c-1.381 0-2.5-1.119-2.5-2.5v-81.942c0-1.381 1.119-2.5 2.5-2.5s2.5 1.119 2.5 2.5v81.941c0 1.382-1.119 2.501-2.5 2.501z"/></g><g><path d="m138.829 126.123c-.153 0-.308-.014-.463-.043-6.871-1.291-13.861-1.291-20.732 0-1.148.22-2.292-.392-2.756-1.464-3.138-7.251-10.438-27.739-10.438-61.302 0-3.402.177-6.886.526-10.355.202-2.022 1.975-3.538 3.998-3.495l1.412.044-3.038-3.67c-.753-.911-1.053-2.097-.822-3.256 3.714-18.573 11.582-32.711 15.941-39.487 1.247-1.938 3.319-3.095 5.543-3.095s4.296 1.157 5.543 3.094c3.935 6.116 9.45 16.153 13.376 29.236.292.971.189 2.042-.282 2.939l-1.246 2.376c1.759.047 3.309 1.282 3.695 3.055 1.642 7.521 2.474 15.129 2.474 22.613 0 33.563-7.3 54.051-10.438 61.302-.401.928-1.311 1.508-2.293 1.508zm-10.829-6.017c3.083 0 6.197.241 9.285.716 3.288-8.227 9.276-27.358 9.276-57.509 0-6.785-.719-13.681-2.14-20.515l-.375.061c-1.465.236-2.914-.363-3.781-1.567s-.979-2.768-.29-4.083l2.026-3.867c-3.75-12.318-8.945-21.764-12.664-27.543-.447-.695-1.029-.799-1.337-.799s-.89.104-1.338.8c-4.128 6.415-11.547 19.738-15.14 37.25l4.269 5.157c.988 1.194 1.18 2.8.498 4.193-.681 1.392-2.071 2.21-3.617 2.18l-2.83-.088c-.267 2.961-.402 5.923-.402 8.821 0 30.151 5.988 49.282 9.276 57.509 3.087-.475 6.201-.716 9.284-.716z"/></g><g><path d="m145.001 106.393c-.414 0-.833-.103-1.22-.32-1.205-.675-1.633-2.199-.958-3.403l30.357-54.134c.676-1.204 2.199-1.633 3.403-.958 1.205.675 1.633 2.199.958 3.403l-30.357 54.134c-.458.818-1.308 1.278-2.183 1.278z"/></g><g><path d="m147.534 127.759c-.701 0-1.398-.293-1.893-.865-.903-1.045-.788-2.624.257-3.526 8.378-7.24 21.081-20.714 34.019-43.785 3.319-5.918 6.064-12.286 8.168-18.94l-.357-.13c-1.395-.51-2.365-1.742-2.532-3.216-.168-1.474.5-2.893 1.744-3.702l3.659-2.382c2.754-12.579 2.842-23.358 2.425-30.217-.05-.827-.507-1.203-.775-1.353s-.826-.345-1.559.044c-6.738 3.577-19.725 11.568-31.425 25.085l1.2 6.586c.278 1.524-.341 3.02-1.617 3.901s-2.894.932-4.221.132l-2.423-1.46c-.423.621-.842 1.252-1.258 1.89-.755 1.157-2.303 1.483-3.459.729s-1.483-2.303-.729-3.459c.638-.979 1.284-1.944 1.942-2.883 1.167-1.665 3.451-2.146 5.197-1.093l1.209.729-.854-4.688c-.212-1.163.107-2.344.876-3.242 12.323-14.382 26.102-22.866 33.218-26.643 2.035-1.081 4.409-1.076 6.348.012s3.181 3.11 3.32 5.411c.441 7.259.342 18.71-2.632 32.042-.22.99-.834 1.875-1.685 2.426l-2.247 1.463c1.509.902 2.257 2.736 1.729 4.47-2.247 7.363-5.242 14.407-8.903 20.936-13.292 23.704-26.43 37.621-35.11 45.123-.471.405-1.053.605-1.632.605z"/></g><g><path d="m154.863 120.919c-.862 0-1.701-.446-2.165-1.246-.693-1.194-.287-2.724.907-3.417l49.662-28.824c1.196-.694 2.724-.286 3.417.907.693 1.194.287 2.724-.907 3.417l-49.662 28.824c-.395.23-.826.339-1.252.339z"/></g><g><path d="m159.089 134.04c-1.099 0-2.106-.73-2.41-1.841-.364-1.332.42-2.707 1.752-3.071 11.545-3.155 23.726-8.428 36.207-15.672 4.951-2.873 9.684-6.31 14.085-10.226-.895-1.091-1.092-2.569-.517-3.857.576-1.288 1.81-2.126 3.219-2.188l3.625-.156c7.489-8.072 12.242-15.968 14.922-21.205.252-.492.125-.849.027-1.018s-.345-.457-.896-.481c-6.527-.301-19.569-.069-34.083 4.768l-1.943 5.267c-.502 1.361-1.762 2.308-3.211 2.411-1.442.11-2.83-.657-3.52-1.935l-1.006-1.865c-.788.372-1.584.762-2.376 1.165-1.23.626-2.736.136-3.362-1.094-.626-1.231-.136-2.736 1.094-3.362s2.469-1.222 3.683-1.772c1.762-.797 3.863-.087 4.784 1.62l.218.404 1.161-3.146c.389-1.055 1.223-1.867 2.286-2.229 15.526-5.292 29.537-5.543 36.504-5.225 2.103.097 3.969 1.206 4.991 2.966 1.022 1.761 1.06 3.932.1 5.806-2.869 5.605-7.987 14.098-16.081 22.728-.66.703-1.589 1.129-2.55 1.171l-1.808.078c.509 1.375.168 2.973-.968 4.013-4.923 4.502-10.261 8.434-15.867 11.688-12.854 7.461-25.437 12.901-37.398 16.171-.222.058-.444.087-.662.087z"/></g><g><path d="m110.954 106.313c-.875 0-1.725-.46-2.183-1.278l-30.313-54.054c-.675-1.204-.247-2.728.958-3.403 1.204-.675 2.728-.247 3.403.958l30.312 54.054c.675 1.204.247 2.728-.958 3.403-.386.216-.805.32-1.219.32z"/></g><g><path d="m108.613 127.885c-.578 0-1.158-.199-1.63-.605-8.715-7.5-21.908-21.44-35.261-45.253-3.661-6.529-6.656-13.572-8.902-20.935-.528-1.735.22-3.569 1.729-4.471l-2.249-1.464c-.848-.55-1.462-1.435-1.683-2.426-2.974-13.333-3.073-24.783-2.632-32.042.14-2.3 1.381-4.322 3.32-5.41s4.313-1.092 6.348-.012c7.116 3.777 20.895 12.261 33.218 26.644.769.897 1.088 2.079.876 3.242l-.854 4.687 1.209-.729c1.749-1.052 4.031-.572 5.198 1.093.666.95 1.318 1.925 1.964 2.916.753 1.157.427 2.706-.73 3.459-1.156.754-2.705.427-3.459-.73-.422-.648-.848-1.29-1.278-1.921l-2.423 1.46c-1.327.8-2.944.75-4.221-.132-1.275-.881-1.895-2.376-1.617-3.901l1.2-6.585c-11.7-13.518-24.687-21.509-31.425-25.086-.732-.388-1.291-.194-1.559-.043s-.725.526-.775 1.353c-.417 6.858-.329 17.638 2.425 30.217l3.659 2.382c1.244.809 1.912 2.228 1.744 3.702-.167 1.475-1.138 2.707-2.531 3.216l-.358.13c2.104 6.654 4.85 13.021 8.168 18.94 13.682 24.399 27.276 37.983 34.162 43.908 1.046.901 1.165 2.479.264 3.526-.495.575-1.194.87-1.897.87z"/></g><g><path d="m101.026 120.854c-.426 0-.857-.109-1.252-.338l-49.551-28.76c-1.194-.693-1.601-2.223-.907-3.417.693-1.193 2.223-1.601 3.417-.907l49.551 28.759c1.194.693 1.601 2.223.907 3.417-.464.8-1.302 1.246-2.165 1.246z"/></g><g><path d="m97.001 134.064c-.218 0-.438-.028-.659-.088-11.987-3.266-24.601-8.714-37.49-16.196-5.606-3.253-10.944-7.186-15.867-11.688-1.137-1.04-1.478-2.638-.969-4.013l-1.808-.078c-.962-.042-1.891-.468-2.55-1.17-8.095-8.631-13.213-17.124-16.083-22.729-.959-1.875-.922-4.045.1-5.806s2.888-2.87 4.991-2.966c6.971-.318 20.979-.066 36.505 5.226 1.063.362 1.896 1.174 2.285 2.229l1.161 3.146.218-.404c.921-1.707 3.021-2.419 4.783-1.621 1.279.58 2.582 1.208 3.872 1.869 1.229.628 1.716 2.135 1.087 3.364-.628 1.23-2.136 1.716-3.364 1.087-.851-.435-1.707-.855-2.556-1.256l-1.006 1.865c-.689 1.278-2.071 2.042-3.52 1.935-1.449-.103-2.709-1.049-3.211-2.412l-1.943-5.266c-14.516-4.838-27.557-5.068-34.083-4.768-.551.025-.798.313-.896.481s-.225.526.026 1.018c2.681 5.236 7.433 13.131 14.922 21.205l3.624.156c1.411.061 2.644.899 3.22 2.188.576 1.288.378 2.767-.517 3.858 4.401 3.915 9.134 7.352 14.085 10.225 12.518 7.265 24.729 12.545 36.299 15.697 1.332.363 2.118 1.737 1.755 3.069-.303 1.112-1.311 1.843-2.411 1.843z"/></g><g><g><path d="m136.555 203.405c-.059 0-.118-.002-.178-.006-1.377-.097-2.416-1.292-2.318-2.669.223-3.163 1.375-11.296 7.258-18.486 7.191-8.788 18.692-13.244 34.183-13.244 22.723 0 39.143-6.59 48.916-12.119 1.202-.682 2.727-.257 3.407.945s.257 2.727-.945 3.407c-10.296 5.824-27.567 12.767-51.378 12.767-8.104 0-34.685 1.953-36.454 27.081-.092 1.317-1.19 2.324-2.491 2.324z"/></g><g><path d="m165.663 208.37c-.434 0-.865-.003-1.299-.01-1.379-.021-2.481-1.155-2.461-2.535.019-1.379 1.145-2.48 2.532-2.465.495.006.989.001 1.48-.015.147-.005.289.003.429.022 20.813-.175 41.172-8.403 56.126-22.744.998-.957 2.58-.922 3.535.074.956.997.923 2.579-.074 3.535-16.041 15.382-37.942 24.138-60.268 24.138z"/></g></g><g><g><path d="m119.445 203.405c-1.301 0-2.398-1.007-2.491-2.325-.448-6.352-4.398-27.08-36.454-27.08-23.934 0-41.263-7.007-51.585-12.886-1.2-.683-1.618-2.209-.935-3.41.684-1.2 2.211-1.619 3.41-.935 9.797 5.58 26.27 12.231 49.11 12.231 15.491 0 26.992 4.456 34.183 13.244 5.883 7.19 7.036 15.323 7.258 18.486.097 1.377-.941 2.572-2.318 2.669-.06.004-.12.006-.178.006z"/></g><g><path d="m89.59 208.367c-.007 0-.014 0-.021 0-22.27-.187-43.356-8.716-59.375-24.016-.999-.954-1.035-2.536-.082-3.535s2.536-1.036 3.535-.082c15.096 14.418 34.971 22.456 55.964 22.632 1.381.012 2.491 1.14 2.479 2.521-.012 1.375-1.129 2.48-2.5 2.48z"/></g></g><g><path d="m122.066 236.105c-1.139 0-2.168-.783-2.434-1.94-3.049-13.261-10.734-22.013-16.645-27.02-1.054-.893-1.184-2.47-.292-3.523.893-1.054 2.469-1.185 3.523-.292 6.49 5.497 14.93 15.115 18.287 29.715.309 1.346-.531 2.687-1.876 2.997-.189.042-.378.063-.563.063z"/></g><g><path d="m128.001 193.531c-3.974 0-7.948-.552-11.817-1.656-1.328-.379-2.097-1.762-1.718-3.09.379-1.329 1.764-2.096 3.09-1.718 6.945 1.982 14.278 1.95 21.205-.092 1.326-.389 2.715.367 3.105 1.691.391 1.324-.367 2.714-1.691 3.105-3.979 1.173-8.076 1.76-12.174 1.76z"/></g><g><path d="m133.93 236.124c-.186 0-.374-.021-.562-.064-1.346-.309-2.186-1.65-1.877-2.996 3.322-14.471 11.644-24.04 18.04-29.52 1.047-.898 2.625-.777 3.525.272.898 1.048.777 2.626-.272 3.525-5.825 4.991-13.402 13.699-16.42 26.842-.266 1.157-1.296 1.941-2.434 1.941z"/></g></g></g></svg>